# Blender v2.90.1 OBJ File: 'iceberg.blend'
# www.blender.org
mtllib iceberg.mtl
o Cylinder
v 61.357162 24.656635 -1.169534
v 79.291992 25.747616 0.204271
v 83.640076 25.747616 10.879721
v 61.357159 24.656635 15.347869
v 60.192680 29.257523 9.337833
v 68.459007 35.931503 6.609742
v 54.494061 24.656635 2.959818
v 66.963104 18.018616 -7.677495
v 82.202454 17.116177 2.085505
v 83.338623 17.116177 15.051911
v 57.272057 18.018616 22.324995
v 46.510742 18.943743 9.901798
v 58.387150 17.461151 -7.149609
v 62.598404 13.961977 -4.962743
v 76.835930 11.231700 26.295282
v 56.820198 13.384919 24.055695
v 44.469398 13.951694 1.853221
v 49.472580 13.321505 -9.430115
v 85.599014 10.919136 -4.106549
v 81.718521 8.048647 15.210674
v 33.966942 -2.530812 -24.459082
v 53.794521 8.048647 19.465715
v 39.557831 9.060221 3.077193
v 60.799046 8.048647 -14.039358
v 88.209808 -0.752322 -3.501337
v 87.390594 -0.752322 30.909840
v 56.455845 -0.752322 39.734322
v 40.986923 -0.833060 17.259354
v 39.203407 -0.752322 -15.595959
v 73.672409 1.049693 -20.320297
v 72.016174 -2.530812 -25.852175
v 28.959259 -8.426093 -19.840654
v 45.565483 -8.882365 39.734322
v 87.278625 -7.014899 -5.316344
v 88.399841 -6.556491 26.295424
v 78.864632 -12.379954 -23.721281
v 86.417725 -15.137740 -5.564131
v 88.337128 -14.855807 43.824699
v 26.659794 -29.966667 22.764618
v 62.744984 -14.100141 -34.351273
v 75.787994 -20.115108 -25.407591
v 24.457916 -27.693413 -13.030031
v 43.769165 -34.366409 34.515320
v 65.155685 -19.886253 -35.165009
v 86.520050 -22.928276 -20.348686
v 91.817261 -28.605988 -1.093903
v 95.768890 -28.025551 52.230904
v 61.419022 -35.735207 -33.417923
v 0.781361 -60.513313 30.561193
v 64.908081 30.294071 -1.243464
v 20.852837 -43.719604 23.538168
v 18.500267 -41.290771 -14.706171
v 39.133125 -48.420448 36.093063
v 84.809776 -36.199524 -22.525696
v 90.469498 -42.265800 -1.953166
v 94.691582 -41.645638 55.021057
v 57.990894 -49.882935 -36.489357
v 0.781361 -77.014603 30.561193
v -2.842190 -56.772293 -28.344786
v 28.937641 -67.753799 49.898911
v 99.291260 -48.930481 -40.388832
v 108.008667 -58.274086 -8.701922
v 114.511749 -57.318871 79.052818
v 57.983383 -70.006401 -61.896416
v -2.842190 -73.273582 -28.344786
v 28.937641 -84.255096 49.898911
v 99.291260 -65.431770 -40.388832
v 108.008667 -74.775375 -8.701922
v 114.511749 -73.820160 79.052818
v 57.983383 -86.507690 -61.896416
v 57.366470 -97.547943 64.128357
vn 0.0801 -0.0635 -0.9948
vn 0.3787 0.7760 0.5044
vn -0.7462 0.3719 -0.5521
vn -0.3666 0.7031 0.6093
vn -0.6282 0.7781 0.0000
vn -0.5594 0.6797 -0.4744
vn 0.1965 0.5408 0.8179
vn -0.8259 -0.1438 0.5451
vn 0.2866 0.4207 -0.8608
vn -0.6025 0.7973 -0.0368
vn -0.4659 0.7182 0.5168
vn 0.9719 0.0678 -0.2255
vn -0.2349 0.6768 -0.6977
vn -0.5693 0.7242 0.3892
vn 0.3882 0.7491 -0.5368
vn -0.4171 0.8536 -0.3121
vn 0.1214 0.7382 0.6636
vn 0.1860 -0.3500 -0.9181
vn 0.1368 0.8174 -0.5596
vn -0.7455 0.4041 0.5301
vn 0.4212 0.6243 0.6579
vn -0.7202 -0.2375 -0.6518
vn 0.0056 -0.9998 -0.0192
vn -0.2555 0.7376 -0.6251
vn -0.2877 0.7146 0.6376
vn 0.8915 0.4416 0.1016
vn 0.4478 0.5786 -0.6816
vn -0.9049 0.3009 0.3011
vn -0.0510 0.9437 -0.3269
vn -0.3540 0.9350 0.0215
vn -0.8856 0.4186 0.2014
vn -0.5537 0.7417 0.3785
vn -0.8092 0.5407 0.2297
vn 0.7792 0.2302 -0.5829
vn 0.9999 0.0089 -0.0046
vn 0.9949 -0.0943 -0.0365
vn 0.8556 0.2368 -0.4602
vn 0.2742 -0.5688 0.7754
vn 0.2575 -0.3449 0.9026
vn 0.0850 0.9004 0.4266
vn -0.0728 -0.4001 -0.9136
vn 0.9930 -0.0934 -0.0726
vn -0.4662 -0.0702 -0.8819
vn -0.2909 0.4404 -0.8494
vn 0.5530 -0.0385 -0.8323
vn -0.9648 0.2520 0.0754
vn -0.2799 -0.1736 0.9442
vn 0.4316 0.0249 -0.9017
vn 0.9098 0.4114 -0.0555
vn 0.8860 0.4126 -0.2113
vn -0.3399 0.3622 0.8679
vn 0.6547 -0.2336 -0.7189
vn -0.4802 0.0165 -0.8770
vn -0.3383 0.2145 0.9163
vn -0.5010 0.2580 0.8261
vn -0.4138 0.2878 -0.8637
vn 0.9554 -0.0763 -0.2853
vn 0.4218 0.0936 -0.9018
vn 0.2892 0.7109 -0.6411
vn 0.8879 -0.1510 0.4345
vn 0.9805 -0.1767 -0.0859
vn 0.9317 0.2818 0.2290
vn -0.0381 -0.5271 -0.8489
vn 0.4379 0.0572 -0.8972
vn 0.6349 0.3606 -0.6833
vn -0.3139 0.6558 0.6866
vn 0.6799 0.7327 0.0290
vn -0.0765 0.7816 -0.6191
vn -0.1694 0.7726 -0.6119
vn -0.6210 0.7789 0.0877
vn -0.3062 0.6549 0.6910
vn -0.9166 0.3916 0.0812
vn 0.4618 0.0000 -0.8870
vn -0.4830 0.0000 -0.8756
vn -0.9981 0.0000 0.0614
vn -0.5661 0.0000 0.8243
vn 0.9973 0.0000 -0.0739
vn -0.3225 0.0000 0.9466
vn 0.6610 0.7482 -0.0571
vn -0.2174 -0.9749 -0.0485
vn -0.3393 0.2462 0.9079
vn -0.2959 -0.9535 -0.0577
vn 0.5683 -0.7336 -0.3727
vn 0.3876 -0.9217 -0.0187
vn 0.3089 -0.9476 -0.0815
vn 0.9642 0.0000 -0.2653
usemtl Material.012
s off
f 2//1 1//1 50//1
f 3//2 2//2 6//2 4//2
f 12//3 7//3 13//3
f 4//4 6//4 5//4
f 5//5 6//5 7//5
f 7//6 6//6 50//6 1//6
f 3//7 4//7 11//7 10//7
f 11//8 12//8 17//8 16//8
f 1//9 2//9 9//9 8//9
f 5//10 7//10 12//10
f 4//11 5//11 12//11 11//11
f 2//12 3//12 10//12 9//12
f 7//13 1//13 8//13 13//13
f 28//14 27//14 22//14
f 9//15 19//15 8//15
f 12//16 13//16 18//16 17//16
f 10//17 11//17 16//17 15//17
f 13//18 8//18 14//18 18//18
f 18//19 14//19 19//19 24//19
f 16//20 17//20 23//20 22//20
f 15//21 27//21 26//21 20//21
f 17//22 18//22 24//22 23//22
f 25//23 26//23 27//23 28//23 29//23 30//23
f 23//24 24//24 30//24 29//24
f 16//25 22//25 27//25 15//25
f 19//26 20//26 26//26 25//26
f 24//27 19//27 25//27 30//27
f 22//28 23//28 29//28 28//28
f 29//29 30//29 31//29 21//29
f 28//30 29//30 21//30
f 28//31 21//31 32//31 33//31
f 28//32 33//32 27//32
f 32//33 39//33 33//33
f 31//34 30//34 25//34 34//34
f 34//35 25//35 26//35 35//35
f 34//36 35//36 38//36 37//36
f 31//37 34//37 37//37 36//37
f 26//38 33//38 35//38
f 33//39 26//39 27//39
f 35//40 33//40 38//40
f 31//41 36//41 32//41 21//41
f 46//42 47//42 56//42 55//42
f 40//43 44//43 42//43
f 36//44 40//44 42//44 32//44
f 40//45 36//45 41//45
f 39//46 32//46 42//46
f 33//47 39//47 43//47 38//47
f 41//48 36//48 45//48
f 37//49 38//49 47//49 46//49
f 36//50 37//50 46//50 45//50
f 43//51 47//51 38//51
f 41//52 48//52 44//52
f 44//53 48//53 42//53
f 47//54 43//54 53//54 56//54
f 43//55 39//55 51//55 53//55
f 42//56 48//56 57//56 52//56
f 45//57 46//57 55//57 54//57
f 48//58 45//58 54//58 57//58
f 50//59 6//59 2//59
f 15//60 20//60 10//60
f 10//61 20//61 9//61
f 9//62 20//62 19//62
f 14//63 8//63 19//63
f 45//64 48//64 41//64
f 41//65 44//65 40//65
f 56//66 53//66 60//66 63//66
f 54//67 55//67 62//67 61//67
f 57//68 54//68 61//68 64//68
f 52//69 57//69 64//69 59//69
f 51//70 52//70 59//70 49//70
f 53//71 51//71 49//71 60//71
f 39//72 42//72 52//72 51//72
f 64//73 61//73 67//73 70//73
f 59//74 64//74 70//74 65//74
f 49//75 59//75 65//75 58//75
f 60//76 49//76 58//76 66//76
f 62//77 63//77 69//77 68//77
f 63//78 60//78 66//78 69//78
f 55//79 56//79 63//79 62//79
f 58//80 65//80 66//80
f 69//81 66//81 71//81
f 66//82 65//82 70//82 71//82
f 68//83 70//83 67//83
f 69//84 71//84 68//84
f 70//85 68//85 71//85
f 61//86 62//86 68//86 67//86
